<mxfile host="app.diagrams.net" modified="2022-06-08T05:00:37.032Z" agent="5.0 (Windows NT 10.0; Win64; x64) AppleWebKit/537.36 (KHTML, like Gecko) Chrome/102.0.0.0 Safari/537.36" etag="j7kegRcPu3edynczpHNw" version="19.0.2" type="github">
  <diagram id="kgpKYQtTHZ0yAKxKKP6v" name="Page-1">
    <mxGraphModel dx="944" dy="490" grid="1" gridSize="10" guides="1" tooltips="1" connect="1" arrows="1" fold="1" page="1" pageScale="1" pageWidth="850" pageHeight="1100" math="0" shadow="0">
      <root>
        <mxCell id="0" />
        <mxCell id="1" parent="0" />
        <mxCell id="0raNL6PWexiLqV6Pb0n8-3" value="Sensor&amp;nbsp;" style="rounded=0;whiteSpace=wrap;html=1;fillColor=#f8cecc;strokeColor=#b85450;" vertex="1" parent="1">
          <mxGeometry x="40" y="70" width="120" height="60" as="geometry" />
        </mxCell>
        <mxCell id="0raNL6PWexiLqV6Pb0n8-4" value="Raspberry pi&lt;br&gt;" style="rounded=0;whiteSpace=wrap;html=1;fillColor=#f8cecc;strokeColor=#b85450;" vertex="1" parent="1">
          <mxGeometry x="220" y="70" width="120" height="60" as="geometry" />
        </mxCell>
        <mxCell id="0raNL6PWexiLqV6Pb0n8-6" value="Driver&amp;nbsp;" style="rounded=0;whiteSpace=wrap;html=1;fillColor=#f8cecc;strokeColor=#b85450;" vertex="1" parent="1">
          <mxGeometry x="370" y="70" width="100" height="60" as="geometry" />
        </mxCell>
        <mxCell id="0raNL6PWexiLqV6Pb0n8-7" value="save me&amp;nbsp;" style="rounded=0;whiteSpace=wrap;html=1;fillColor=#f8cecc;strokeColor=#b85450;" vertex="1" parent="1">
          <mxGeometry x="500" y="70" width="80" height="60" as="geometry" />
        </mxCell>
        <mxCell id="0raNL6PWexiLqV6Pb0n8-8" value="server" style="rounded=0;whiteSpace=wrap;html=1;fillColor=#f8cecc;strokeColor=#b85450;" vertex="1" parent="1">
          <mxGeometry x="600" y="70" width="80" height="60" as="geometry" />
        </mxCell>
        <mxCell id="0raNL6PWexiLqV6Pb0n8-9" value="Alert" style="rounded=0;whiteSpace=wrap;html=1;fillColor=#f8cecc;strokeColor=#b85450;" vertex="1" parent="1">
          <mxGeometry x="710" y="70" width="120" height="60" as="geometry" />
        </mxCell>
        <mxCell id="0raNL6PWexiLqV6Pb0n8-22" value="sense the&amp;nbsp;&lt;br&gt;pressure&amp;nbsp;&lt;br&gt;parameters" style="text;html=1;align=center;verticalAlign=middle;resizable=0;points=[];autosize=1;strokeColor=none;fillColor=none;" vertex="1" parent="1">
          <mxGeometry x="100" y="195" width="80" height="50" as="geometry" />
        </mxCell>
        <mxCell id="0raNL6PWexiLqV6Pb0n8-23" value="" style="endArrow=classic;html=1;rounded=0;exitX=1.04;exitY=0.51;exitDx=0;exitDy=0;exitPerimeter=0;" edge="1" parent="1" source="0raNL6PWexiLqV6Pb0n8-20">
          <mxGeometry width="50" height="50" relative="1" as="geometry">
            <mxPoint x="460" y="340" as="sourcePoint" />
            <mxPoint x="280" y="328" as="targetPoint" />
          </mxGeometry>
        </mxCell>
        <mxCell id="0raNL6PWexiLqV6Pb0n8-24" value="sends sensors info" style="text;html=1;align=center;verticalAlign=middle;resizable=0;points=[];autosize=1;strokeColor=none;fillColor=none;" vertex="1" parent="1">
          <mxGeometry x="150" y="330" width="120" height="20" as="geometry" />
        </mxCell>
        <mxCell id="0raNL6PWexiLqV6Pb0n8-28" value="sense pressure&amp;nbsp;&lt;br&gt;variance&amp;nbsp;" style="text;html=1;align=center;verticalAlign=middle;resizable=0;points=[];autosize=1;strokeColor=none;fillColor=none;" vertex="1" parent="1">
          <mxGeometry x="270" y="265" width="100" height="30" as="geometry" />
        </mxCell>
        <mxCell id="0raNL6PWexiLqV6Pb0n8-29" value="" style="edgeStyle=elbowEdgeStyle;fontSize=12;html=1;endArrow=blockThin;endFill=1;rounded=0;" edge="1" parent="1">
          <mxGeometry width="160" relative="1" as="geometry">
            <mxPoint x="350" y="410" as="sourcePoint" />
            <mxPoint x="530" y="410" as="targetPoint" />
            <Array as="points">
              <mxPoint x="285" y="529.5" />
            </Array>
          </mxGeometry>
        </mxCell>
        <mxCell id="0raNL6PWexiLqV6Pb0n8-30" value="detects accident&amp;nbsp;" style="text;html=1;align=center;verticalAlign=middle;resizable=0;points=[];autosize=1;strokeColor=none;fillColor=none;" vertex="1" parent="1">
          <mxGeometry x="425" y="410" width="110" height="20" as="geometry" />
        </mxCell>
        <mxCell id="0raNL6PWexiLqV6Pb0n8-31" value="" style="edgeStyle=elbowEdgeStyle;fontSize=12;html=1;endArrow=blockThin;endFill=1;rounded=0;entryX=-0.34;entryY=0.497;entryDx=0;entryDy=0;entryPerimeter=0;" edge="1" parent="1" target="0raNL6PWexiLqV6Pb0n8-11">
          <mxGeometry width="160" relative="1" as="geometry">
            <mxPoint x="435" y="239.5" as="sourcePoint" />
            <mxPoint x="525" y="239.5" as="targetPoint" />
          </mxGeometry>
        </mxCell>
        <mxCell id="0raNL6PWexiLqV6Pb0n8-32" value="register&amp;nbsp;" style="text;html=1;align=center;verticalAlign=middle;resizable=0;points=[];autosize=1;strokeColor=none;fillColor=none;" vertex="1" parent="1">
          <mxGeometry x="450" y="210" width="60" height="20" as="geometry" />
        </mxCell>
        <mxCell id="0raNL6PWexiLqV6Pb0n8-33" value="Sensor" style="shape=umlLifeline;perimeter=lifelinePerimeter;whiteSpace=wrap;html=1;container=1;collapsible=0;recursiveResize=0;outlineConnect=0;" vertex="1" parent="1">
          <mxGeometry x="47.5" y="80" width="105" height="460" as="geometry" />
        </mxCell>
        <mxCell id="0raNL6PWexiLqV6Pb0n8-20" value="" style="html=1;points=[];perimeter=orthogonalPerimeter;fillColor=#fff2cc;strokeColor=#d6b656;" vertex="1" parent="0raNL6PWexiLqV6Pb0n8-33">
          <mxGeometry x="47.5" y="100" width="10" height="290" as="geometry" />
        </mxCell>
        <mxCell id="0raNL6PWexiLqV6Pb0n8-21" value="" style="edgeStyle=segmentEdgeStyle;endArrow=classic;html=1;rounded=0;exitX=1.28;exitY=0.206;exitDx=0;exitDy=0;exitPerimeter=0;entryX=1.04;entryY=0.355;entryDx=0;entryDy=0;entryPerimeter=0;" edge="1" parent="0raNL6PWexiLqV6Pb0n8-33" source="0raNL6PWexiLqV6Pb0n8-20" target="0raNL6PWexiLqV6Pb0n8-20">
          <mxGeometry width="50" height="50" relative="1" as="geometry">
            <mxPoint x="412.5" y="280" as="sourcePoint" />
            <mxPoint x="55.5" y="230" as="targetPoint" />
            <Array as="points">
              <mxPoint x="122.5" y="160" />
              <mxPoint x="122.5" y="203" />
            </Array>
          </mxGeometry>
        </mxCell>
        <mxCell id="0raNL6PWexiLqV6Pb0n8-34" value="Raspberry pi" style="shape=umlLifeline;perimeter=lifelinePerimeter;whiteSpace=wrap;html=1;container=1;collapsible=0;recursiveResize=0;outlineConnect=0;" vertex="1" parent="1">
          <mxGeometry x="230" y="80" width="100" height="460" as="geometry" />
        </mxCell>
        <mxCell id="0raNL6PWexiLqV6Pb0n8-5" value="" style="html=1;points=[];perimeter=orthogonalPerimeter;fillColor=#fff2cc;strokeColor=#d6b656;" vertex="1" parent="0raNL6PWexiLqV6Pb0n8-34">
          <mxGeometry x="45" y="160" width="10" height="230" as="geometry" />
        </mxCell>
        <mxCell id="0raNL6PWexiLqV6Pb0n8-27" value="" style="edgeStyle=segmentEdgeStyle;endArrow=classic;html=1;rounded=0;exitX=1.1;exitY=0.462;exitDx=0;exitDy=0;exitPerimeter=0;entryX=1.18;entryY=0.236;entryDx=0;entryDy=0;entryPerimeter=0;" edge="1" parent="0raNL6PWexiLqV6Pb0n8-34" source="0raNL6PWexiLqV6Pb0n8-5" target="0raNL6PWexiLqV6Pb0n8-5">
          <mxGeometry width="50" height="50" relative="1" as="geometry">
            <mxPoint x="230" y="260" as="sourcePoint" />
            <mxPoint x="280" y="210" as="targetPoint" />
            <Array as="points">
              <mxPoint x="58" y="266" />
              <mxPoint x="58" y="260" />
              <mxPoint x="140" y="260" />
              <mxPoint x="140" y="214" />
            </Array>
          </mxGeometry>
        </mxCell>
        <mxCell id="0raNL6PWexiLqV6Pb0n8-35" value="Driver" style="shape=umlLifeline;perimeter=lifelinePerimeter;whiteSpace=wrap;html=1;container=1;collapsible=0;recursiveResize=0;outlineConnect=0;" vertex="1" parent="1">
          <mxGeometry x="375" y="80" width="90" height="450" as="geometry" />
        </mxCell>
        <mxCell id="0raNL6PWexiLqV6Pb0n8-10" value="" style="html=1;points=[];perimeter=orthogonalPerimeter;fillColor=#fff2cc;strokeColor=#d6b656;" vertex="1" parent="0raNL6PWexiLqV6Pb0n8-35">
          <mxGeometry x="40" y="120" width="10" height="80" as="geometry" />
        </mxCell>
        <mxCell id="0raNL6PWexiLqV6Pb0n8-36" value=":Object" style="shape=umlLifeline;perimeter=lifelinePerimeter;whiteSpace=wrap;html=1;container=1;collapsible=0;recursiveResize=0;outlineConnect=0;" vertex="1" parent="1">
          <mxGeometry x="505" y="80" width="70" height="450" as="geometry" />
        </mxCell>
        <mxCell id="0raNL6PWexiLqV6Pb0n8-11" value="" style="html=1;points=[];perimeter=orthogonalPerimeter;fillColor=#fff2cc;strokeColor=#d6b656;" vertex="1" parent="0raNL6PWexiLqV6Pb0n8-36">
          <mxGeometry x="30" y="120" width="10" height="80" as="geometry" />
        </mxCell>
        <mxCell id="0raNL6PWexiLqV6Pb0n8-12" value="" style="html=1;points=[];perimeter=orthogonalPerimeter;fillColor=#fff2cc;strokeColor=#d6b656;" vertex="1" parent="0raNL6PWexiLqV6Pb0n8-36">
          <mxGeometry x="30" y="310" width="10" height="80" as="geometry" />
        </mxCell>
        <mxCell id="0raNL6PWexiLqV6Pb0n8-37" value="Server" style="shape=umlLifeline;perimeter=lifelinePerimeter;whiteSpace=wrap;html=1;container=1;collapsible=0;recursiveResize=0;outlineConnect=0;" vertex="1" parent="1">
          <mxGeometry x="605" y="80" width="70" height="480" as="geometry" />
        </mxCell>
        <mxCell id="0raNL6PWexiLqV6Pb0n8-13" value="" style="html=1;points=[];perimeter=orthogonalPerimeter;fillColor=#fff2cc;strokeColor=#d6b656;" vertex="1" parent="0raNL6PWexiLqV6Pb0n8-37">
          <mxGeometry x="30" y="310" width="10" height="80" as="geometry" />
        </mxCell>
        <mxCell id="0raNL6PWexiLqV6Pb0n8-38" value="ALERT" style="shape=umlLifeline;perimeter=lifelinePerimeter;whiteSpace=wrap;html=1;container=1;collapsible=0;recursiveResize=0;outlineConnect=0;" vertex="1" parent="1">
          <mxGeometry x="720" y="80" width="100" height="440" as="geometry" />
        </mxCell>
        <mxCell id="0raNL6PWexiLqV6Pb0n8-14" value="" style="html=1;points=[];perimeter=orthogonalPerimeter;fillColor=#fff2cc;strokeColor=#d6b656;" vertex="1" parent="0raNL6PWexiLqV6Pb0n8-38">
          <mxGeometry x="45" y="310" width="10" height="80" as="geometry" />
        </mxCell>
        <mxCell id="0raNL6PWexiLqV6Pb0n8-41" value="" style="edgeStyle=elbowEdgeStyle;fontSize=12;html=1;endArrow=blockThin;endFill=1;rounded=0;entryX=-0.136;entryY=0.623;entryDx=0;entryDy=0;entryPerimeter=0;" edge="1" parent="0raNL6PWexiLqV6Pb0n8-38" target="0raNL6PWexiLqV6Pb0n8-14">
          <mxGeometry width="160" relative="1" as="geometry">
            <mxPoint x="-75" y="359.55" as="sourcePoint" />
            <mxPoint x="85" y="359.55" as="targetPoint" />
          </mxGeometry>
        </mxCell>
        <mxCell id="0raNL6PWexiLqV6Pb0n8-39" value="" style="edgeStyle=elbowEdgeStyle;fontSize=12;html=1;endArrow=blockThin;endFill=1;rounded=0;" edge="1" parent="1">
          <mxGeometry width="160" relative="1" as="geometry">
            <mxPoint x="550" y="430" as="sourcePoint" />
            <mxPoint x="640" y="430" as="targetPoint" />
            <Array as="points">
              <mxPoint x="630" y="430" />
            </Array>
          </mxGeometry>
        </mxCell>
        <mxCell id="0raNL6PWexiLqV6Pb0n8-40" value="collision info" style="text;html=1;align=center;verticalAlign=middle;resizable=0;points=[];autosize=1;strokeColor=none;fillColor=none;" vertex="1" parent="1">
          <mxGeometry x="550" y="430" width="80" height="20" as="geometry" />
        </mxCell>
        <mxCell id="0raNL6PWexiLqV6Pb0n8-42" value="sends ALERT beep" style="text;html=1;align=center;verticalAlign=middle;resizable=0;points=[];autosize=1;strokeColor=none;fillColor=none;" vertex="1" parent="1">
          <mxGeometry x="640" y="440" width="120" height="20" as="geometry" />
        </mxCell>
      </root>
    </mxGraphModel>
  </diagram>
</mxfile>
